# xmcd
#
# Track frame offsets:
#	150
#	20323
#	39119
#	60299
#	79305
#	96485
#	114215
#	135791
#	154448
#	173704
#	191585
#	208612
#	229432
#	244541
#	259489
#	274747
#	291690
#	307187
#	322016
#	335971
#	350919
#
# Disc length: 4761 seconds
#
# Revision: 0
# Processed by: cddbd v1.5.2PL0 Copyright (c) Steve Scherf et al.
# Submitted via: dBpowerAMP V4.0
#
DISCID=43129715
DTITLE=La Nueva Luna - La Revancha
DYEAR=2008
DGENRE=Cumbia
TTITLE0=Ave De Cristal
TTITLE1=La Revancha
TTITLE2=Que Pasa Entre Nosostros
TTITLE3=No Llores
TTITLE4=Te Llevas Mi Alma
TTITLE5=Un Poco Loco
TTITLE6=El Amor
TTITLE7=Como Duele
TTITLE8=Que Bonito
TTITLE9=Pensando En Ti
TTITLE10=Y Ahora Te Vas
TTITLE11=Choque
TTITLE12=Tu Presa
TTITLE13=Recuerdo De Mi 
TTITLE14=Choque De Cometas
TTITLE15=Corazon De Madera
TTITLE16=Cancion De Amor
TTITLE17=Todo Me Recuerda A Ti
TTITLE18=Dime
TTITLE19=Recuerdo De Mi
TTITLE20=Adios, Adios Corazon
EXTD=
EXTT0=
EXTT1=
EXTT2=
EXTT3=
EXTT4=
EXTT5=
EXTT6=
EXTT7=
EXTT8=
EXTT9=
EXTT10=
EXTT11=
EXTT12=
EXTT13=
EXTT14=
EXTT15=
EXTT16=
EXTT17=
EXTT18=
EXTT19=
EXTT20=
PLAYORDER=
